<svg xmlns="http://www.w3.org/2000/svg" viewBox="0 0 1280 540" width="1280" height="540" role="img" aria-label="Rigging package architecture">
  <defs>
    <linearGradient id="boxRuntime" x1="0" x2="0" y1="0" y2="1">
      <stop offset="0%" stop-color="#0c4a6e"/>
      <stop offset="100%" stop-color="#082f49"/>
    </linearGradient>
    <linearGradient id="boxCore" x1="0" x2="0" y1="0" y2="1">
      <stop offset="0%" stop-color="#1e293b"/>
      <stop offset="100%" stop-color="#0f172a"/>
    </linearGradient>
    <linearGradient id="boxIdent" x1="0" x2="0" y1="0" y2="1">
      <stop offset="0%" stop-color="#365314"/>
      <stop offset="100%" stop-color="#1a2e05"/>
    </linearGradient>
    <linearGradient id="boxTrace" x1="0" x2="0" y1="0" y2="1">
      <stop offset="0%" stop-color="#3f3f46"/>
      <stop offset="100%" stop-color="#18181b"/>
    </linearGradient>
    <linearGradient id="boxAdapt" x1="0" x2="0" y1="0" y2="1">
      <stop offset="0%" stop-color="#581c87"/>
      <stop offset="100%" stop-color="#2e1065"/>
    </linearGradient>
    <linearGradient id="boxExt" x1="0" x2="0" y1="0" y2="1">
      <stop offset="0%" stop-color="#1e1e1e"/>
      <stop offset="100%" stop-color="#0a0a0a"/>
    </linearGradient>
    <style>
      .title  { fill:#f8fafc; font: 700 18px ui-sans-serif, system-ui, sans-serif; }
      .sub    { fill:#cbd5e1; font: 12px ui-monospace, monospace; }
      .corner { fill:#fbbf24; font: 700 11px ui-monospace, monospace; }
      .h1     { fill:#f1f5f9; font: 700 24px ui-sans-serif, system-ui, sans-serif; }
      .h2     { fill:#94a3b8; font: 500 13px ui-monospace, monospace; }
      .ext    { fill:#94a3b8; font: 600 13px ui-monospace, monospace; }
    </style>
    <marker id="arr" viewBox="0 0 10 10" refX="9" refY="5" markerWidth="8" markerHeight="8" orient="auto">
      <path d="M 0 0 L 10 5 L 0 10 z" fill="#38bdf8"/>
    </marker>
    <marker id="arrD" viewBox="0 0 10 10" refX="9" refY="5" markerWidth="8" markerHeight="8" orient="auto">
      <path d="M 0 0 L 10 5 L 0 10 z" fill="#64748b"/>
    </marker>
  </defs>

  <rect width="1280" height="540" fill="#020617"/>
  <text x="40" y="44" class="h1">rigging &#8212; five small Python packages plus a CLI</text>
  <text x="40" y="68" class="h2">
    <tspan x="40" dy="0">one-direction dependency graph &#183; provider-agnostic core</tspan>
    <tspan x="40" dy="1.4em">all LLM/MCP code lives only in adapters</tspan>
  </text>

  <!-- Runtime (centre, 380 wide × 140 tall) -->
  <g transform="translate(450,180)">
    <rect width="380" height="140" rx="14" fill="url(#boxRuntime)" stroke="#0ea5e9"/>
    <text x="22" y="34" class="corner">rigging-runtime</text>
    <text x="22" y="68" class="title">The Rig orchestrator</text>
    <text x="22" y="94" class="sub">contract state machine</text>
    <text x="22" y="114" class="sub">budget ledger &#183; verifier &#183; spans</text>
  </g>

  <!-- Core (left, 340 wide) -->
  <g transform="translate(40,180)">
    <rect width="340" height="140" rx="14" fill="url(#boxCore)" stroke="#475569"/>
    <text x="22" y="34" class="corner">rigging-core</text>
    <text x="22" y="68" class="title">Schemas &#183; protocols</text>
    <text x="22" y="94" class="sub">Contract &#183; AgentCard &#183; Trace</text>
    <text x="22" y="114" class="sub">no I/O &#183; no crypto &#183; no LLMs</text>
  </g>

  <!-- Identity (bottom-left, 340 wide) -->
  <g transform="translate(40,360)">
    <rect width="340" height="140" rx="14" fill="url(#boxIdent)" stroke="#65a30d"/>
    <text x="22" y="34" class="corner">rigging-identity</text>
    <text x="22" y="68" class="title">Ed25519 &#183; DID &#183; JCS &#183; JWS</text>
    <text x="22" y="94" class="sub">card signing &amp; verify</text>
    <text x="22" y="114" class="sub">the only crypto package</text>
  </g>

  <!-- Trace (top-right, 340 wide) -->
  <g transform="translate(900,180)">
    <rect width="340" height="140" rx="14" fill="url(#boxTrace)" stroke="#a1a1aa"/>
    <text x="22" y="34" class="corner">rigging-trace</text>
    <text x="22" y="68" class="title">OTel processor</text>
    <text x="22" y="94" class="sub">blame-chain extractor</text>
    <text x="22" y="114" class="sub">rig.* span attributes</text>
  </g>

  <!-- Adapters (bottom-right, 340 wide) -->
  <g transform="translate(900,360)">
    <rect width="340" height="140" rx="14" fill="url(#boxAdapt)" stroke="#a855f7"/>
    <text x="22" y="34" class="corner">rigging-adapters</text>
    <text x="22" y="68" class="title">LiteLLM &#183; MCP &#183; Local</text>
    <text x="22" y="94" class="sub">bridges from any harness</text>
    <text x="22" y="114" class="sub">&lt; 500 LOC total</text>
  </g>

  <!-- External (centre-bottom, 380 wide) -->
  <g transform="translate(450,360)">
    <rect width="380" height="140" rx="14" fill="url(#boxExt)" stroke="#334155" stroke-dasharray="6 4"/>
    <text x="22" y="34" class="corner">external &#183; out of scope</text>
    <text x="22" y="64" class="ext">MCP servers</text>
    <text x="22" y="82" class="ext">LiteLLM providers</text>
    <text x="22" y="100" class="ext">OTel collector</text>
    <text x="22" y="118" class="ext">your harness  &#183;  A2A peers (v1)</text>
  </g>

  <!-- arrows (with clear bend, no text overlap) -->
  <line x1="380" y1="250" x2="446" y2="250" stroke="#38bdf8" stroke-width="2" marker-end="url(#arr)"/>
  <line x1="380" y1="430" x2="446" y2="430" stroke="#64748b" stroke-width="2" marker-end="url(#arrD)" stroke-dasharray="5 5"/>
  <line x1="830" y1="250" x2="896" y2="250" stroke="#38bdf8" stroke-width="2" marker-end="url(#arr)"/>
  <line x1="830" y1="430" x2="896" y2="430" stroke="#38bdf8" stroke-width="2" marker-end="url(#arr)"/>
  <line x1="640" y1="320" x2="640" y2="356" stroke="#64748b" stroke-width="2" marker-end="url(#arrD)" stroke-dasharray="5 5"/>

  <!-- legend -->
  <g transform="translate(40,514)" font-family="ui-monospace, monospace" font-size="12" fill="#94a3b8">
    <line x1="0" y1="-5" x2="40" y2="-5" stroke="#38bdf8" stroke-width="2"/>
    <text x="48" y="0">depends on (compile time)</text>
    <line x1="280" y1="-5" x2="320" y2="-5" stroke="#64748b" stroke-width="2" stroke-dasharray="5 5"/>
    <text x="328" y="0">calls at runtime</text>
  </g>
</svg>
