<svg xmlns="http://www.w3.org/2000/svg" viewBox="0 0 1280 460" width="1280" height="460" role="img" aria-label="A blame chain produced by the rig runtime">
  <defs>
    <linearGradient id="cardOk" x1="0" x2="0" y1="0" y2="1">
      <stop offset="0%" stop-color="#064e3b"/>
      <stop offset="100%" stop-color="#022c22"/>
    </linearGradient>
    <linearGradient id="cardBad" x1="0" x2="0" y1="0" y2="1">
      <stop offset="0%" stop-color="#7f1d1d"/>
      <stop offset="100%" stop-color="#450a0a"/>
    </linearGradient>
    <linearGradient id="cardVer" x1="0" x2="0" y1="0" y2="1">
      <stop offset="0%" stop-color="#1e3a8a"/>
      <stop offset="100%" stop-color="#0c1f60"/>
    </linearGradient>
    <linearGradient id="cardOp" x1="0" x2="0" y1="0" y2="1">
      <stop offset="0%" stop-color="#1e293b"/>
      <stop offset="100%" stop-color="#0b1220"/>
    </linearGradient>
    <style>
      .h     { fill:#f1f5f9; font: 700 22px ui-sans-serif, system-ui, sans-serif; }
      .ttl   { fill:#94a3b8; font: 600 12px ui-monospace, monospace; }
      .name  { fill:#f8fafc; font: 700 16px ui-sans-serif, system-ui, sans-serif; }
      .did   { fill:#fde68a; font: 11px ui-monospace, monospace; }
      .sub   { fill:#cbd5e1; font: 11px ui-monospace, monospace; }
      .ok    { fill:#a7f3d0; font: 700 11px ui-monospace, monospace; }
      .bad   { fill:#fecaca; font: 700 11px ui-monospace, monospace; }
      .caption{fill:#64748b; font: 13px ui-sans-serif, system-ui, sans-serif; }
    </style>
    <marker id="arrow" viewBox="0 0 10 10" refX="9" refY="5" markerWidth="8" markerHeight="8" orient="auto">
      <path d="M 0 0 L 10 5 L 0 10 z" fill="#475569"/>
    </marker>

    <!-- Inline shape symbols (guaranteed to render in any renderer). -->
    <symbol id="okMark" viewBox="0 0 16 16" width="14" height="14">
      <circle cx="8" cy="8" r="7" fill="#064e3b" stroke="#10b981" stroke-width="1.5"/>
      <path d="M5 8 L7.5 10.5 L11.5 6" stroke="#a7f3d0" stroke-width="1.8" fill="none" stroke-linecap="round" stroke-linejoin="round"/>
    </symbol>
    <symbol id="badMark" viewBox="0 0 16 16" width="14" height="14">
      <circle cx="8" cy="8" r="7" fill="#7f1d1d" stroke="#ef4444" stroke-width="1.5"/>
      <path d="M5.5 5.5 L10.5 10.5 M10.5 5.5 L5.5 10.5" stroke="#fecaca" stroke-width="1.8" fill="none" stroke-linecap="round"/>
    </symbol>
  </defs>

  <rect width="1280" height="460" fill="#020617"/>
  <text x="40" y="46" class="h">blame chain &#183; contract 01HXQK3Z</text>
  <text x="40" y="68" class="ttl">walk backwards from the verifier's reject until you arrive at a signed envelope no one else co-signed.</text>

  <!-- A (planner) · 260 wide -->
  <g transform="translate(40,118)">
    <rect width="260" height="160" rx="14" fill="url(#cardOk)" stroke="#10b981"/>
    <text x="20" y="30" class="ttl">caller &#183; planner</text>
    <text x="20" y="58" class="name">A &#183; plan_translation</text>
    <text x="20" y="86" class="did">did:rig:k0m&#8230;7zE</text>
    <text x="20" y="116" class="sub">cost: 1 unit</text>
    <text x="20" y="136" class="sub">sig: ed25519</text>
    <use href="#okMark" x="120" y="124"/>

  </g>
  <line x1="300" y1="198" x2="348" y2="198" stroke="#475569" stroke-width="2" marker-end="url(#arrow)"/>

  <!-- B (worker, proximate cause) · 290 wide -->
  <g transform="translate(350,118)">
    <rect width="290" height="160" rx="14" fill="url(#cardBad)" stroke="#ef4444"/>
    <text x="20" y="30" class="ttl">callee &#183; worker (bad output)</text>
    <text x="20" y="58" class="name">B &#183; translate_pdf</text>
    <text x="20" y="86" class="did">did:rig:9rT&#8230;qN2</text>
    <text x="20" y="116" class="sub">cost: 0.12 usd</text>
    <text x="20" y="136" class="sub">sig: ed25519</text>
    <use href="#okMark" x="120" y="124"/>
    <text x="148" y="136" class="bad">proximate cause</text>
  </g>
  <line x1="640" y1="198" x2="688" y2="198" stroke="#475569" stroke-width="2" marker-end="url(#arrow)"/>

  <!-- V (verifier) · 320 wide (verdict line is long) -->
  <g transform="translate(690,118)">
    <rect width="320" height="160" rx="14" fill="url(#cardVer)" stroke="#38bdf8"/>
    <text x="20" y="30" class="ttl">verifier sub-contract</text>
    <text x="20" y="58" class="name">V &#183; verify</text>
    <text x="20" y="86" class="did">did:rig:fY1&#8230;8wB</text>
    <text x="20" y="116" class="sub">verdict: reject</text>
    <text x="20" y="136" class="sub">reason: schema_violation</text>
    <use href="#okMark" x="200" y="124"/>
    <text x="220" y="136" class="ok">sig</text>
  </g>
  <line x1="1010" y1="198" x2="1058" y2="198" stroke="#475569" stroke-width="2" marker-end="url(#arrow)"/>

  <!-- Operator surface · 200 wide -->
  <g transform="translate(1060,118)">
    <rect width="200" height="160" rx="14" fill="url(#cardOp)" stroke="#475569"/>
    <text x="20" y="30" class="ttl">operator surface</text>
    <text x="20" y="58" class="name">VerifierRejected</text>
    <text x="20" y="86" class="did">contract 01HXQK3Z</text>
    <text x="20" y="116" class="sub">blame &gt; B</text>
    <text x="20" y="136" class="sub">14 signed envelopes</text>
  </g>

  <!-- Legend -->
  <g transform="translate(40,318)" font-family="ui-monospace, monospace" font-size="12" fill="#94a3b8">
    <rect x="0" y="0" width="22" height="22" rx="6" fill="url(#cardOk)" stroke="#10b981"/>
    <text x="32" y="16">honest envelope</text>
    <rect x="190" y="0" width="22" height="22" rx="6" fill="url(#cardBad)" stroke="#ef4444"/>
    <text x="222" y="16">proximate cause</text>
    <rect x="400" y="0" width="22" height="22" rx="6" fill="url(#cardVer)" stroke="#38bdf8"/>
    <text x="432" y="16">verifier sub-contract</text>
    <rect x="610" y="0" width="22" height="22" rx="6" fill="url(#cardOp)" stroke="#475569"/>
    <text x="642" y="16">operator-facing result</text>
  </g>

  <!-- Caption (multi-line via tspan to avoid horizontal overflow) -->
  <text x="40" y="378" class="caption">
    <tspan x="40" dy="0">If you swap B's output for ground truth, the verifier accepts and the run succeeds.</tspan>
    <tspan x="40" dy="1.5em">The chain stops at B. That is mechanical blame &#8212; nothing is adjudicated, only attributed.</tspan>
  </text>
</svg>
