<svg xmlns="http://www.w3.org/2000/svg" viewBox="0 0 1280 400" width="1280" height="400" role="img" aria-label="The three primitives a rig refuses to live without">
  <defs>
    <linearGradient id="card" x1="0" x2="1" y1="0" y2="1">
      <stop offset="0%" stop-color="#1e293b"/>
      <stop offset="100%" stop-color="#020617"/>
    </linearGradient>
    <linearGradient id="accent" x1="0" x2="1" y1="0" y2="0">
      <stop offset="0%" stop-color="#38bdf8"/>
      <stop offset="100%" stop-color="#22d3ee"/>
    </linearGradient>
    <linearGradient id="accent2" x1="0" x2="1" y1="0" y2="0">
      <stop offset="0%" stop-color="#a78bfa"/>
      <stop offset="100%" stop-color="#22d3ee"/>
    </linearGradient>
    <linearGradient id="accent3" x1="0" x2="1" y1="0" y2="0">
      <stop offset="0%" stop-color="#fbbf24"/>
      <stop offset="100%" stop-color="#ef4444"/>
    </linearGradient>
    <style>
      .h   { fill:#f8fafc; font: 700 24px ui-sans-serif, system-ui, sans-serif; }
      .p   { fill:#94a3b8; font: 14px/1.5 ui-sans-serif, system-ui, sans-serif; }
      .k   { fill:#fbbf24; font: 700 12px ui-monospace, monospace; letter-spacing:1px; }
      .pill { fill:#0f172a; stroke:#334155; }
      .pillT{ fill:#e2e8f0; font: 600 11px ui-monospace, monospace; }
    </style>
    <symbol id="okSm" viewBox="0 0 16 16" width="14" height="14">
      <circle cx="8" cy="8" r="7" fill="#064e3b" stroke="#10b981" stroke-width="1.5"/>
      <path d="M5 8 L7.5 10.5 L11.5 6" stroke="#a7f3d0" stroke-width="1.8" fill="none" stroke-linecap="round" stroke-linejoin="round"/>
    </symbol>
    <symbol id="badSm" viewBox="0 0 16 16" width="14" height="14">
      <circle cx="8" cy="8" r="7" fill="#7f1d1d" stroke="#ef4444" stroke-width="1.5"/>
      <path d="M5.5 5.5 L10.5 10.5 M10.5 5.5 L5.5 10.5" stroke="#fecaca" stroke-width="1.8" fill="none" stroke-linecap="round"/>
    </symbol>
  </defs>

  <rect width="1280" height="400" fill="#020617"/>

  <!-- Card 1: Signed agent cards (400 wide × 320 tall, 32 padding) -->
  <g transform="translate(40,40)">
    <rect width="380" height="320" rx="18" fill="url(#card)" stroke="#1e3a8a"/>
    <rect width="380" height="6"   rx="3"  fill="url(#accent)"/>
    <text x="32" y="60"  class="k">01 / capability</text>
    <text x="32" y="98"  class="h">Signed Agent Cards</text>
    <text x="32"        class="p">
      <tspan x="32" dy="138">Each agent advertises capabilities,</tspan>
      <tspan x="32" dy="20">input/output schemas, and a cost</tspan>
      <tspan x="32" dy="20">model on an Ed25519-signed JSON</tspan>
      <tspan x="32" dy="20">card. Unsigned card &#8594; call refused.</tspan>
    </text>

    <g transform="translate(32,236)">
      <rect class="pill" x="0"   y="0"  width="160" height="24" rx="12"/>
      <text x="16" y="16" class="pillT">capability: verify</text>
      <rect class="pill" x="170" y="0"  width="120" height="24" rx="12"/>
      <text x="186" y="16" class="pillT">cost: usd</text>
      <rect class="pill" x="0"   y="36" width="232" height="24" rx="12"/>
      <text x="16" y="52" class="pillT">sig: ed25519:8f3&#8230;ac</text>
    </g>
  </g>

  <!-- Card 2: Delegation contracts -->
  <g transform="translate(450,40)">
    <rect width="380" height="320" rx="18" fill="url(#card)" stroke="#3b0764"/>
    <rect width="380" height="6"   rx="3"  fill="url(#accent2)"/>
    <text x="32" y="60"  class="k">02 / coupling</text>
    <text x="32" y="98"  class="h">Delegation Contracts</text>
    <text x="32"        class="p">
      <tspan x="32" dy="138">A typed, signed bill of lading</tspan>
      <tspan x="32" dy="20">between caller and callee:</tspan>
      <tspan x="32" dy="20">capability + budget + verifier +</tspan>
      <tspan x="32" dy="20">expiry. Negotiated. Persisted.</tspan>
    </text>

    <g transform="translate(32,236)">
      <rect class="pill" x="0"   y="0"  width="138" height="24" rx="12"/>
      <text x="16" y="16" class="pillT">budget: $0.50</text>
      <rect class="pill" x="148" y="0"  width="124" height="24" rx="12"/>
      <text x="164" y="16" class="pillT">verifier: V</text>
      <rect class="pill" x="0"   y="36" width="190" height="24" rx="12"/>
      <text x="16" y="52" class="pillT">expires: T + 30s</text>
    </g>
  </g>

  <!-- Card 3: Blame chains -->
  <g transform="translate(860,40)">
    <rect width="380" height="320" rx="18" fill="url(#card)" stroke="#7c2d12"/>
    <rect width="380" height="6"   rx="3"  fill="url(#accent3)"/>
    <text x="32" y="60"  class="k">03 / accountability</text>
    <text x="32" y="98"  class="h">Blame Chains</text>
    <text x="32"        class="p">
      <tspan x="32" dy="138">When something goes wrong, walk</tspan>
      <tspan x="32" dy="20">the DAG of signed envelopes back-</tspan>
      <tspan x="32" dy="20">wards. The proximate cause is</tspan>
      <tspan x="32" dy="20">signed by exactly one key.</tspan>
    </text>

    <g transform="translate(32,232)" font-family="ui-monospace, monospace" font-size="13" font-weight="700">
      <!-- A: ok pill -->
      <rect x="0"  y="0" width="58" height="28" rx="14" fill="#064e3b" stroke="#10b981"/>
      <text x="14" y="19" fill="#a7f3d0">A</text>
      <use href="#okSm" x="30" y="7"/>
      <!-- arrow 1 -->
      <line x1="64" y1="14" x2="78" y2="14" stroke="#64748b" stroke-width="1.5"/>
      <!-- B: ok pill -->
      <rect x="82" y="0" width="58" height="28" rx="14" fill="#064e3b" stroke="#10b981"/>
      <text x="96" y="19" fill="#a7f3d0">B</text>
      <use href="#okSm" x="112" y="7"/>
      <!-- arrow 2 -->
      <line x1="146" y1="14" x2="160" y2="14" stroke="#64748b" stroke-width="1.5"/>
      <!-- C: bad pill -->
      <rect x="164" y="0" width="58" height="28" rx="14" fill="#7f1d1d" stroke="#ef4444"/>
      <text x="178" y="19" fill="#fecaca">C</text>
      <use href="#badSm" x="194" y="7"/>

      <text x="0" y="60" fill="#94a3b8" font-weight="400">proximate cause: agent C</text>
    </g>
  </g>
</svg>
