<svg xmlns="http://www.w3.org/2000/svg" viewBox="0 0 1200 360" width="1200" height="360" role="img" aria-label="The three primitives a rig refuses to live without">
  <defs>
    <linearGradient id="card" x1="0" x2="1" y1="0" y2="1">
      <stop offset="0%" stop-color="#1e293b"/>
      <stop offset="100%" stop-color="#020617"/>
    </linearGradient>
    <linearGradient id="accent" x1="0" x2="1" y1="0" y2="0">
      <stop offset="0%" stop-color="#38bdf8"/>
      <stop offset="100%" stop-color="#22d3ee"/>
    </linearGradient>
    <style>
      .h { fill:#f8fafc; font: 600 22px ui-sans-serif, system-ui, sans-serif; }
      .p { fill:#94a3b8; font: 14px ui-sans-serif, system-ui, sans-serif; }
      .k { fill:#fbbf24; font: 700 12px ui-monospace, monospace; }
      .pill { fill:#0f172a; stroke:#334155; }
      .pillT { fill:#e2e8f0; font: 600 11px ui-monospace, monospace; }
    </style>
  </defs>

  <rect width="1200" height="360" fill="#020617"/>

  <!-- Card 1: Signed agent cards -->
  <g transform="translate(40,40)">
    <rect width="360" height="280" rx="16" fill="url(#card)" stroke="#1e3a8a"/>
    <rect width="360" height="6" rx="3" fill="url(#accent)"/>
    <text x="28" y="60" class="k">01 / capability</text>
    <text x="28" y="92" class="h">Signed Agent Cards</text>
    <text x="28" y="124" class="p">Each agent advertises capabilities,</text>
    <text x="28" y="142" class="p">input/output schemas, and cost model</text>
    <text x="28" y="160" class="p">on an Ed25519-signed JSON card.</text>
    <text x="28" y="178" class="p">Unsigned card → call refused.</text>

    <g transform="translate(28,200)">
      <rect class="pill" x="0" y="0" width="118" height="22" rx="11"/>
      <text x="14" y="15" class="pillT">capability: verify</text>
      <rect class="pill" x="126" y="0" width="74" height="22" rx="11"/>
      <text x="140" y="15" class="pillT">cost: usd</text>
      <rect class="pill" x="0" y="32" width="146" height="22" rx="11"/>
      <text x="14" y="47" class="pillT">sig: ed25519:8f3…ac</text>
    </g>
  </g>

  <!-- Card 2: Delegation contracts -->
  <g transform="translate(420,40)">
    <rect width="360" height="280" rx="16" fill="url(#card)" stroke="#1e3a8a"/>
    <rect width="360" height="6" rx="3" fill="url(#accent)"/>
    <text x="28" y="60" class="k">02 / coupling</text>
    <text x="28" y="92" class="h">Delegation Contracts</text>
    <text x="28" y="124" class="p">A typed, signed bill of lading</text>
    <text x="28" y="142" class="p">between caller and callee:</text>
    <text x="28" y="160" class="p">capability + budget + verifier +</text>
    <text x="28" y="178" class="p">expiry. Negotiated. Persisted.</text>

    <g transform="translate(28,200)">
      <rect class="pill" x="0" y="0" width="110" height="22" rx="11"/>
      <text x="14" y="15" class="pillT">budget: $0.50</text>
      <rect class="pill" x="118" y="0" width="100" height="22" rx="11"/>
      <text x="132" y="15" class="pillT">verifier: V</text>
      <rect class="pill" x="0" y="32" width="146" height="22" rx="11"/>
      <text x="14" y="47" class="pillT">expires: T+30s</text>
    </g>
  </g>

  <!-- Card 3: Blame chains -->
  <g transform="translate(800,40)">
    <rect width="360" height="280" rx="16" fill="url(#card)" stroke="#1e3a8a"/>
    <rect width="360" height="6" rx="3" fill="url(#accent)"/>
    <text x="28" y="60" class="k">03 / accountability</text>
    <text x="28" y="92" class="h">Blame Chains</text>
    <text x="28" y="124" class="p">When something goes wrong,</text>
    <text x="28" y="142" class="p">walk the DAG of signed envelopes</text>
    <text x="28" y="160" class="p">backwards. The proximate cause</text>
    <text x="28" y="178" class="p">is signed by exactly one key.</text>

    <g transform="translate(28,200)" font-family="ui-monospace, monospace" font-size="11">
      <rect x="0" y="0" width="44" height="22" rx="11" fill="#064e3b" stroke="#10b981"/>
      <text x="13" y="15" fill="#a7f3d0">A ✓</text>
      <text x="48" y="15" fill="#475569">→</text>
      <rect x="58" y="0" width="44" height="22" rx="11" fill="#064e3b" stroke="#10b981"/>
      <text x="71" y="15" fill="#a7f3d0">B ✓</text>
      <text x="106" y="15" fill="#475569">→</text>
      <rect x="116" y="0" width="44" height="22" rx="11" fill="#7f1d1d" stroke="#ef4444"/>
      <text x="128" y="15" fill="#fecaca">C ✗</text>

      <text x="0" y="48" fill="#94a3b8">proximate cause: agent C</text>
    </g>
  </g>
</svg>
